<?xml version="1.0" encoding="UTF-8" standalone="no"?>
<svg
   width="609.795"
   height="508.522"
   viewBox="0 0 609.795 508.522"
   version="1.1"
   id="svg935"
   sodipodi:docname="ilustration.svg"
   inkscape:version="1.1.1 (c3084ef, 2021-09-22)"
   xmlns:inkscape="http://www.inkscape.org/namespaces/inkscape"
   xmlns:sodipodi="http://sodipodi.sourceforge.net/DTD/sodipodi-0.dtd"
   xmlns="http://www.w3.org/2000/svg"
   xmlns:svg="http://www.w3.org/2000/svg">
  <sodipodi:namedview
     id="namedview937"
     pagecolor="#ffffff"
     bordercolor="#666666"
     borderopacity="1.0"
     inkscape:pageshadow="2"
     inkscape:pageopacity="0.0"
     inkscape:pagecheckerboard="0"
     showgrid="false"
     inkscape:zoom="0.64015149"
     inkscape:cx="-175.73965"
     inkscape:cy="767.78701"
     inkscape:window-width="2560"
     inkscape:window-height="1395"
     inkscape:window-x="418"
     inkscape:window-y="23"
     inkscape:window-maximized="1"
     inkscape:current-layer="Group_526" />
  <defs
     id="defs840">
    <clipPath
       id="clip-path">
      <rect
         id="Rectangle_271"
         data-name="Rectangle 271"
         width="588.113"
         height="416.919"
         fill="none" />
    </clipPath>
    <clipPath
       id="clip-path-3">
      <rect
         id="Rectangle_266"
         data-name="Rectangle 266"
         width="18.134"
         height="7.778"
         fill="none" />
    </clipPath>
    <clipPath
       id="clip-path-4">
      <rect
         id="Rectangle_267"
         data-name="Rectangle 267"
         width="18.134"
         height="7.782"
         fill="none" />
    </clipPath>
    <clipPath
       id="clip-path-5">
      <rect
         id="Rectangle_268"
         data-name="Rectangle 268"
         width="16.638"
         height="7.305"
         fill="none" />
    </clipPath>
    <clipPath
       id="clip-path-6">
      <rect
         id="Rectangle_269"
         data-name="Rectangle 269"
         width="16.638"
         height="7.306"
         fill="none" />
    </clipPath>
    <clipPath
       id="clip-path-7">
      <rect
         id="Rectangle_224"
         data-name="Rectangle 224"
         width="58.424"
         height="58.424"
         fill="#95e5d8" />
    </clipPath>
    <clipPath
       id="clip-path-8">
      <rect
         id="Rectangle_225"
         data-name="Rectangle 225"
         width="156.247"
         height="72.459"
         fill="#c4c5ef" />
    </clipPath>
    <clipPath
       id="clip-path-9">
      <rect
         id="Rectangle_223"
         data-name="Rectangle 223"
         width="57.364"
         height="78.889"
         fill="none" />
    </clipPath>
  </defs>
  <g
     id="Group_526"
     data-name="Group 526"
     transform="translate(-639.626 -168.739)">
    <path
       id="Path_1441"
       data-name="Path 1441"
       d="M240,0C372.548,0,480,107.452,480,240S372.548,480,240,480,0,372.548,0,240,107.452,0,240,0Z"
       transform="translate(719.203 168.739)"
       fill="#e1f8f4" />
    <g
       id="Group_499"
       data-name="Group 499"
       transform="translate(639.626 194.081)">
      <g
         id="Group_498"
         data-name="Group 498"
         clip-path="url(#clip-path)">
        <path
           id="Path_1352"
           data-name="Path 1352"
           d="m 536.211,70.582 a 5.731,5.731 0 0 0 -3.007,-2.166 h -0.006 c -2.16,-0.673 -4.246,0.908 -6.356,4.856 a 0.454,0.454 0 0 1 -0.044,0.074 l -2.727,4.1 a 0.94,0.94 0 0 1 -0.822,0.417 0.794,0.794 0 0 1 -0.23,-0.037 0.936,0.936 0 0 1 -0.66,-0.9 l 0.031,-11.548 v -0.006 h -0.006 l 0.013,-3.827 0.037,-18.825 c -2.11,1.114 -6.157,2.541 -10.253,0.181 -4.183,-2.4 -4.7,-7.681 -4.657,-10.465 -3.846,2.019 -14.406,6.619 -26.824,4.094 a 29.433,29.433 0 0 1 -13.739,-6.605 c -1.924,2.21 -4.871,7.482 -6.078,14.33 -0.095,1.42 -0.946,8.948 -1.28,15.7 -0.261,5.264 -0.032,10.251 -0.032,10.251 -1.251,20.946 6.4,29.424 14.35,34.982 a 28.086,28.086 0 0 0 25.642,3.76 38.041,38.041 0 0 0 23.395,-23.114 0.934,0.934 0 0 1 1.768,0.6 c -0.093,0.255 -0.2,0.5 -0.293,0.759 a 0.948,0.948 0 0 1 -0.025,0.131 c -0.062,0.174 -0.125,0.354 -0.187,0.535 a 5.156,5.156 0 0 0 3.125,0.3 c 2.079,-0.311 7.2,-1.911 9.854,-10.1 a 8.908,8.908 0 0 0 0.423,-2.746 8.147,8.147 0 0 0 -1.413,-4.744"
           fill="#ffffff" />
        <path
           id="Path_1353"
           data-name="Path 1353"
           d="m 350.754,144.718 c -0.965,1.332 -2.384,3.312 -3.654,5.1 l 0.012,-0.112 a 2.076,2.076 0 0 0 -2.31,-2.334 6.024,6.024 0 0 0 -2.6,0.934 c 3.455,-4.271 6.655,-4.414 8.385,-4.04 a 0.257,0.257 0 0 1 0.193,0.168 0.308,0.308 0 0 1 -0.031,0.286"
           fill="#ffffff" />
        <path
           id="Path_1354"
           data-name="Path 1354"
           d="m 340.682,161.365 c -1.525,-1.911 -3.187,-3.984 -4.414,-5.478 -0.66,-3.268 0.654,-4.713 1.892,-5.348 0.012,-0.006 0.031,-0.019 0.075,0.006 a 0.121,0.121 0 0 1 0.075,0.093 z"
           fill="#ffffff" />
        <path
           id="Path_1355"
           data-name="Path 1355"
           d="m 345.263,149.462 -1.992,14.947 -2.272,-10.253 c 0.548,-3.735 2.484,-4.75 4.028,-4.93 a 0.2,0.2 0 0 1 0.18,0.062 0.2,0.2 0 0 1 0.056,0.174"
           fill="#ffffff" />
        <path
           id="Path_1356"
           data-name="Path 1356"
           d="m 342.291,166.389 c -2.036,-2.565 -6.96,-8.753 -8.641,-10.739 -0.324,0.317 -1.824,2.117 0.3,6.474 2.521,5.167 3.648,7.078 3.654,7.1 a 0.927,0.927 0 0 1 0.093,0.747 l -2.378,7.819 a 0.93369334,0.93369334 0 1 1 -1.787,-0.542 l 2.26,-7.433 c -0.168,-0.3 -0.442,-0.8 -0.828,-1.531 l -3.243,4.221 a 0.92,0.92 0 0 1 -0.7,0.367 0.963,0.963 0 0 1 -0.61,-0.193 0.94,0.94 0 0 1 -0.174,-1.314 l 3.729,-4.849 0.056,-0.056 c -0.373,-0.722 -0.8,-1.575 -1.282,-2.559 l -6.132,6.6 a 0.93405032,0.93405032 0 0 1 -1.37,-1.27 l 6.642,-7.147 a 12.1,12.1 0 0 1 -0.734,-2.316 c -4.663,3.53 -15.42,12.058 -15.538,12.152 -0.006,0.006 -0.012,0.006 -0.019,0.012 a 1.015,1.015 0 0 1 -0.212,0.118 l -0.044,0.019 a 1.106,1.106 0 0 1 -0.249,0.05 h -0.05 a 1.213,1.213 0 0 1 -0.149,-0.012 0.222,0.222 0 0 1 -0.062,-0.012 c -0.044,-0.012 -0.087,-0.025 -0.137,-0.044 l -0.056,-0.019 c -0.05,-0.025 -0.093,-0.056 -0.143,-0.087 -0.006,-0.006 -0.025,-0.012 -0.031,-0.025 a 0.78,0.78 0 0 1 -0.149,-0.137 c 0,-0.006 -0.006,-0.006 -0.006,-0.012 a 0.006,0.006 0 0 1 -0.006,-0.006 0.006,0.006 0 0 0 -0.006,-0.006 c -1.419,-1.749 -0.865,-4.544 -0.28,-7.508 0.554,-2.783 1.121,-5.665 0.193,-7.806 a 9.618,9.618 0 0 0 -2.776,-3.7 0.554,0.554 0 0 0 -0.6,-0.081 0.531,0.531 0 0 0 -0.311,0.5 40.332,40.332 0 0 1 -6.692,22.834 l -0.131,0.212 c -2.179,3.586 -1.93,12.27 -1.812,14.723 a 2.861,2.861 0 0 1 0.654,0.311 c 4.071,2.54 13.154,6.922 19.722,10.01 a 21.509,21.509 0 0 1 2.378,-2.727 c 9.568,-9.276 15.538,-15.383 16.379,-16.752 0.841,-1.369 1.563,-6.555 1.868,-13.527 a 2.769,2.769 0 0 0 -0.6,-1.855 m -19.4,12.233 c -5.08,1.338 -10.7,10.365 -10.757,10.458 a 0.926,0.926 0 0 1 -0.753,0.442 0.949,0.949 0 0 1 -0.529,-0.137 0.933,0.933 0 0 1 -0.305,-1.289 c 0.243,-0.392 6.064,-9.749 11.872,-11.28 a 0.933,0.933 0 1 1 0.473,1.805"
           fill="#ffffff" />
        <path
           id="Path_1357"
           data-name="Path 1357"
           d="m 158.107,194.49 c 0.044,4.513 -2.3,11.044 -9.238,11.847 -11.069,1.257 -28.792,-6.238 -33.118,-12.326 a 0.222,0.222 0 0 0 0.019,-0.068 c 0.012,-0.081 0.031,-0.212 0.062,-0.392 a 67.945,67.945 0 0 0 -1.285,-28.563 36.681,36.681 0 0 0 18.221,12.314 29.4,29.4 0 0 0 9.325,1.1 27.3,27.3 0 0 0 5.852,-0.928 c 0.728,4.625 3.05,13.926 10.166,17.02"
           fill="#ffffff" />
        <path
           id="Path_1358"
           data-name="Path 1358"
           d="m 156.654,171.095 a 25.8,25.8 0 0 1 -23.382,4.407 35.114,35.114 0 0 1 -19.74,-15.14 0.019,0.019 0 0 0 -0.006,-0.012 0.57,0.57 0 0 0 -0.106,-0.174 32.325,32.325 0 0 1 -1.631,-3.032 c -0.174,-0.4 -0.355,-0.8 -0.542,-1.208 l -0.019,-0.037 -0.3,-0.747 a 0.93402797,0.93402797 0 1 0 -1.743,0.672 c 0.075,0.2 0.156,0.4 0.243,0.591 -2.951,0.367 -10.882,0.4 -13.341,-9.07 a 6,6 0 0 1 2.907,-6.8 c 1.924,-0.934 3.941,-0.255 5.534,1.849 a 0.934,0.934 0 0 0 1.276,0.205 7.294,7.294 0 0 0 3.349,-5.478 9.255,9.255 0 0 0 -1.612,-5.7 6.587,6.587 0 0 0 3.007,-2.5 6.249,6.249 0 0 0 0.878,-5.335 c -0.068,-0.218 -0.149,-0.442 -0.237,-0.666 a 2.668,2.668 0 0 1 -0.3,-1.575 c 0.168,-0.491 0.859,-0.791 1.594,-1.108 0.187,-0.081 0.367,-0.161 0.548,-0.243 a 8.232,8.232 0 0 0 4.563,-7.607 c 4.737,1.419 9.8,-1.058 12.637,-4.588 1.868,-2.322 2.621,-4.793 2.21,-6.923 a 7.115,7.115 0 0 0 5.223,-0.747 10.072,10.072 0 0 0 10.49,2.042 c 0.7,3.86 3.586,6.288 6.014,7.682 3.636,2.085 8.08,2.9 10.726,2.515 0.318,3.175 1,9 1.569,13.889 0.293,2.521 0.56,4.812 0.741,6.4 1.432,12.78 0.759,29.825 -10.552,38.435"
           fill="#ffffff" />
        <path
           id="Path_1359"
           data-name="Path 1359"
           d="m 551.092,289.233 -5.8,25.748 -0.479,2.123 -5.3,23.519 a 0.924,0.924 0 0 1 -0.7,0.7 333.416,333.416 0 0 1 -56.413,6.717 c -5.827,0.181 -12.09,0.181 -18.552,-0.106 -24.869,-1.089 -52.727,-6.425 -70.483,-22.461 a 0.924,0.924 0 0 1 -0.292,-0.884 l 7.015,-32.739 0.4,-1.855 2.994,-13.982 a 0.942,0.942 0 0 1 0.99,-0.735 l 76.379,6.711 h 0.005 l 6.917,0.61 h 0.006 l 62.489,5.491 a 0.939,0.939 0 0 1 0.672,0.386 0.9,0.9 0 0 1 0.156,0.753"
           fill="#6b6dd6"
           style="fill:#323c8f;fill-opacity:1" />
        <path
           id="Path_1360"
           data-name="Path 1360"
           d="m 579.248,180.041 c -7.638,-14.878 -20.052,-22.455 -32.054,-29.775 -9.525,-5.808 -19.373,-11.816 -26.968,-21.483 a 0.425,0.425 0 0 0 -0.075,-0.075 v -0.006 a 0.935,0.935 0 0 0 -1.594,0.573 4.208,4.208 0 0 1 -0.062,0.479 c -0.6,3.623 -4.482,7.421 -10.5,10.247 a 43.875,43.875 0 0 1 -21.857,3.891 13,13 0 0 1 -9.655,-5.4 14.234,14.234 0 0 1 -2.1,-11.442 c 0.031,-0.137 0.062,-0.28 0.1,-0.417 a 0.935,0.935 0 0 0 -1.239,-1.1 c -0.013,0.006 -0.019,0.006 -0.031,0.012 -13.216,5.186 -24.609,8.093 -34.662,10.67 -22.461,5.74 -38.684,9.892 -55.206,33.66 l -1.139,1.637 c -16.036,23.046 -49.41,71.005 -35.976,91.543 6.848,10.465 17.617,18.06 32.017,22.585 12.089,3.8 27.148,5.54 44.766,5.173 13.752,11.89 37.526,21.1 65.322,25.318 a 207.416,207.416 0 0 0 21.826,2.148 c 16.136,0.71 30.261,-0.741 38.721,-4.233 22.567,-9.3 31.238,-40.2 35.8,-62.632 5.951,-29.315 4.177,-52.66 -5.435,-71.373"
           fill="#6b6dd6"
           style="fill:#323c8f;fill-opacity:1" />
        <path
           id="Path_1361"
           data-name="Path 1361"
           d="m 423.701,290.031 a 0.928,0.928 0 0 1 -0.556,-0.215 c -0.169,-0.141 -0.339,-0.288 -0.509,-0.441 a 0.93410719,0.93410719 0 1 1 1.256,-1.383 q 0.223,0.2 0.448,0.389 a 0.934,0.934 0 0 1 -0.639,1.65"
           fill="#6b6dd6" />
        <path
           id="Path_1362"
           data-name="Path 1362"
           d="m 388.426,245.54 a 0.934,0.934 0 0 1 -0.111,-1.854 c 1.1,-0.183 2.211,-0.358 3.337,-0.532 a 0.934,0.934 0 0 1 0.285,1.846 c -1.119,0.173 -2.226,0.347 -3.314,0.529 a 0.958,0.958 0 0 1 -0.2,0.012"
           fill="#6b6dd6" />
        <path
           id="Path_1363"
           data-name="Path 1363"
           d="m 523.761,86.176 c -1.332,4.906 -4.85,15.719 -4.85,15.719 0,0 -1.089,11.735 -1.208,12.457 q -0.346,0.345 -0.766,0.71 c -6.673,5.74 -26.432,13.3 -36.468,-1.438 -0.261,-0.374 -0.51,-0.759 -0.753,-1.164 l 0.15,-2.571 c 11.193,4.955 32.216,3.2 43.894,-23.712"
           fill="#b5b6eb" />
        <path
           id="Path_1364"
           data-name="Path 1364"
           d="m 495.684,91.816 a 15.558,15.558 0 0 1 -11.367,4.333 c -0.075,-0.006 -0.149,-0.006 -0.224,-0.012 a 15.535,15.535 0 0 1 -10.994,-5.659 0.932,0.932 0 0 1 1.451,-1.17 13.638,13.638 0 0 0 9.655,4.962 c 0.062,0.006 0.131,0.012 0.193,0.012 a 13.634,13.634 0 0 0 9.979,-3.8 0.93521294,0.93521294 0 0 1 1.307,1.338"
           fill="#6b6dd6"
           style="fill:#323c8f;fill-opacity:1" />
        <g
           id="Group_486"
           data-name="Group 486"
           transform="translate(453.403,72.351)"
           opacity="0.5">
          <g
             id="Group_485"
             data-name="Group 485">
            <g
               id="Group_484"
               data-name="Group 484"
               clip-path="url(#clip-path-3)">
              <path
                 id="Path_1365"
                 data-name="Path 1365"
                 d="m 746.454,120.908 c -0.187,2.1 -4.389,3.449 -9.394,3.007 -0.392,-0.031 -0.784,-0.081 -1.158,-0.138 a 17.542,17.542 0 0 1 -1.936,-0.36 v -0.006 c -3.424,-0.835 -5.777,-2.453 -5.634,-4.1 0.131,-1.469 2.216,-2.565 5.167,-2.944 a 16.121,16.121 0 0 1 1.874,-0.144 21.813,21.813 0 0 1 2.353,0.075 c 5.005,0.442 8.915,2.5 8.728,4.607"
                 transform="translate(-728.326,-116.221)"
                 fill="#6b6dd6" />
            </g>
          </g>
        </g>
        <g
           id="Group_489"
           data-name="Group 489"
           transform="translate(491.171,75.671)"
           opacity="0.5">
          <g
             id="Group_488"
             data-name="Group 488">
            <g
               id="Group_487"
               data-name="Group 487"
               clip-path="url(#clip-path-4)">
              <path
                 id="Path_1366"
                 data-name="Path 1366"
                 d="m 807.124,126.24 c -0.187,2.1 -4.389,3.455 -9.394,3.013 -5.005,-0.442 -8.908,-2.5 -8.728,-4.607 0.18,-2.107 4.4,-3.449 9.394,-3.007 4.994,0.442 8.915,2.5 8.728,4.6"
                 transform="translate(-788.996,-121.555)"
                 fill="#6b6dd6" />
            </g>
          </g>
        </g>
        <path
           id="Path_1367"
           data-name="Path 1367"
           d="m 495.467,64.604 c -0.181,2.029 -1.5,3.573 -2.951,3.443 -1.451,-0.13 -2.49,-1.874 -2.31,-3.9 0.18,-2.026 1.5,-3.573 2.951,-3.449 1.451,0.124 2.49,1.88 2.31,3.909"
           fill="#6b6dd6"
           style="fill:#323c8f;fill-opacity:1" />
        <path
           id="Path_1368"
           data-name="Path 1368"
           d="m 466.719,62.072 c -0.181,2.029 -1.5,3.573 -2.951,3.443 -1.451,-0.13 -2.49,-1.874 -2.31,-3.9 0.18,-2.026 1.5,-3.573 2.951,-3.449 1.451,0.124 2.49,1.88 2.31,3.909"
           fill="#6b6dd6"
           style="fill:#323c8f;fill-opacity:1" />
        <path
           id="Path_1369"
           data-name="Path 1369"
           d="m 485.98,81.645 a 5.771,5.771 0 0 1 -4.3,1.612 10.789,10.789 0 0 1 -6.586,-3.274 0.934,0.934 0 0 1 -0.212,-0.977 c 0.044,-0.106 3.841,-10.458 4.439,-19.46 0.062,-0.952 0.081,-1.843 0.056,-2.664 -0.019,-0.685 -0.062,-1.326 -0.137,-1.93 -0.784,-6.605 -4.5,-8.255 -6.294,-8.666 a 5.129,5.129 0 0 0 -5.273,1.706 0.935,0.935 0 0 1 -1.519,-1.089 6.988,6.988 0 0 1 7.209,-2.44 c 2.2,0.5 6.8,2.484 7.726,10.209 0.075,0.591 0.125,1.214 0.143,1.874 a 28.085,28.085 0 0 1 -0.044,3.125 c -0.542,8.136 -3.511,17.039 -4.339,19.4 1.239,1.089 4.961,3.891 7.869,1.2 a 0.93422053,0.93422053 0 1 1 1.264,1.376"
           fill="#6b6dd6"
           style="fill:#323c8f;fill-opacity:1" />
        <path
           id="Path_1370"
           data-name="Path 1370"
           d="m 504.201,53.188 a 0.826,0.826 0 0 1 -0.386,0.068 0.947,0.947 0 0 1 -0.828,-0.585 6.263,6.263 0 0 0 -5.472,-4.046 6.032,6.032 0 0 0 -5.777,2.6 0.933,0.933 0 1 1 -1.612,-0.939 7.78,7.78 0 0 1 7.551,-3.518 8.126,8.126 0 0 1 7.047,5.2 0.932,0.932 0 0 1 -0.523,1.214"
           fill="#6b6dd6"
           style="fill:#323c8f;fill-opacity:1" />
        <path
           id="Path_1371"
           data-name="Path 1371"
           d="m 518.494,129.754 c -0.6,3.623 -4.482,7.421 -10.5,10.247 a 43.875,43.875 0 0 1 -21.857,3.891 13,13 0 0 1 -9.655,-5.4 14.233,14.233 0 0 1 -2.1,-11.442 c 3.847,-2.023 5.435,-8.367 6.082,-13.428 10.035,14.735 29.794,7.178 36.468,1.438 a 52.824,52.824 0 0 0 1.556,14.692"
           fill="#ffffff" />
        <path
           id="Path_1372"
           data-name="Path 1372"
           d="m 537.973,69.891 a 10.61,10.61 0 0 1 0.934,8.659 c -1.369,4.227 -3.536,7.383 -6.431,9.375 a 11.212,11.212 0 0 1 -6.711,2.092 L 525.429,90 a 5.748,5.748 0 0 1 -1.861,-0.454 c -3.088,9.593 -6.8,25.48 -3.418,39.157 v 0.006 c 0.068,0.255 0.131,0.5 0.2,0.759 a 0.932,0.932 0 0 1 -0.66,1.145 0.862,0.862 0 0 1 -0.28,0.031 0.941,0.941 0 0 1 -0.865,-0.691 1.877,1.877 0 0 1 -0.05,-0.2 52.833,52.833 0 0 1 -1.556,-14.692 85.33,85.33 0 0 1 2.882,-19.348 39.846,39.846 0 0 1 -19.746,14.91 31.445,31.445 0 0 1 -11.156,1.575 29.643,29.643 0 0 1 -8.149,-1.525 c -0.069,0.9 -0.162,1.892 -0.3,2.951 -0.647,5.061 -2.235,11.4 -6.082,13.428 a 4.112,4.112 0 0 1 -0.442,0.212 0.933,0.933 0 0 1 -0.728,-1.718 c 0.012,-0.006 0.019,-0.006 0.031,-0.012 2.994,-1.295 5.055,-6.8 5.665,-15.1 a 0.969,0.969 0 0 1 0.131,-0.4 32.009,32.009 0 0 1 -6.263,-3.411 C 465.144,101.282 460.493,92.05 459.043,79.549 V 79.54 c -0.255,-2.241 -0.417,-4.588 -0.467,-7.041 q -0.065,-3.418 0.131,-7.091 a 0.834,0.834 0 0 1 0.062,-0.28 0.922,0.922 0 0 1 0.909,-0.6 h 0.013 a 0.934,0.934 0 0 1 0.884,0.984 c -0.037,0.66 -0.062,1.332 -0.087,2.017 -0.056,1.569 -0.068,3.181 -0.037,4.825 a 72.635,72.635 0 0 0 0.529,7.551 c 1.22,9.774 4.719,19.479 12.874,25.181 a 28.088,28.088 0 0 0 25.642,3.76 38.043,38.043 0 0 0 23.395,-23.114 0.934,0.934 0 0 1 1.768,0.6 c -0.094,0.255 -0.2,0.5 -0.293,0.759 a 0.939,0.939 0 0 1 -0.025,0.131 c -0.062,0.174 -0.125,0.355 -0.187,0.535 a 5.154,5.154 0 0 0 3.125,0.305 c 2.079,-0.311 7.2,-1.911 9.855,-10.1 a 8.906,8.906 0 0 0 0.423,-2.745 8.147,8.147 0 0 0 -1.413,-4.744 5.732,5.732 0 0 0 -3.007,-2.166 h -0.006 c -2.16,-0.672 -4.246,0.909 -6.356,4.856 a 0.464,0.464 0 0 1 -0.043,0.075 l -2.727,4.1 a 0.937,0.937 0 0 1 -0.822,0.417 0.773,0.773 0 0 1 -0.23,-0.037 0.936,0.936 0 0 1 -0.66,-0.9 l 0.031,-11.548 v -1.934 l 0.006,-1.886 0.037,-18.825 c -2.11,1.114 -6.157,2.54 -10.253,0.181 -4.183,-2.4 -4.7,-7.682 -4.656,-10.465 -3.847,2.017 -14.411,6.617 -26.825,4.09 a 29.445,29.445 0 0 1 -13.739,-6.605 c -1.924,2.21 -3.511,6.792 -4.719,13.64 -0.168,2.527 -0.411,5.889 -0.672,9.4 -0.056,0.7 -0.106,1.413 -0.162,2.123 a 0.93,0.93 0 0 1 -0.971,0.859 h -0.031 a 0.922,0.922 0 0 1 -0.853,-0.853 v -0.006 a 0.37,0.37 0 0 1 -0.006,-0.143 c 0.28,-3.735 0.573,-7.651 0.778,-10.645 C 438.967,25.082 455.308,0.654 455.476,0.4 a 0.931,0.931 0 0 1 0.76,-0.4 0.944,0.944 0 0 1 0.772,0.386 c 0.069,0.1 7.912,10.34 32.315,5.659 12.606,-2.422 22.629,-0.865 29.776,4.619 8.093,6.207 9.886,15.426 10.247,18.147 a 13.225,13.225 0 0 1 10.178,7.271 c 5.279,9.948 1.874,26.918 -1.55,33.809"
           fill="#6b6dd6"
           style="fill:#323c8f;fill-opacity:1" />
        <path
           id="Path_1373"
           data-name="Path 1373"
           d="m 528.343,65.079 -6.02,-1.743 -16.864,-4.874 a 9.453,9.453 0 0 0 -1.1,-1.6 9.913,9.913 0 0 0 -13.953,-1.237 9.952,9.952 0 0 0 -2.285,2.776 8.738,8.738 0 0 0 -7.035,-3.735 c -0.156,0 -0.311,0.007 -0.461,0.019 a 6.127,6.127 0 0 0 -1.388,0.262 4.9,4.9 0 0 0 -2.546,1.756 9.714,9.714 0 0 0 -1.494,-2.409 9.9,9.9 0 0 0 -13.7,-1.432 c -0.087,0.069 -0.174,0.138 -0.255,0.205 a 9.672,9.672 0 0 0 -1.762,1.918 v 0.006 a 9.77,9.77 0 0 0 -1.743,4.793 9.879,9.879 0 0 0 1.032,5.341 10.043,10.043 0 0 0 1.251,1.892 c 0.149,0.174 0.305,0.349 0.467,0.51 a 9.759,9.759 0 0 0 6.256,2.994 c 0.143,0.012 0.293,0.019 0.442,0.026 a 9.868,9.868 0 0 0 10.216,-11.322 0.868,0.868 0 0 0 0.293,-0.443 2.9,2.9 0 0 1 1.681,-1.9 4.031,4.031 0 0 1 1.388,-0.329 3.65,3.65 0 0 1 0.467,-0.006 6.889,6.889 0 0 1 5.958,3.984 c 0.013,0.019 0.031,0.037 0.044,0.056 a 9.323,9.323 0 0 0 -0.324,1.768 9.9,9.9 0 0 0 9,10.739 c 0.149,0.012 0.293,0.019 0.442,0.026 a 9.874,9.874 0 0 0 9.985,-12.457 l 15.993,4.619 v 0.006 l 5.5,1.587 a 1.126,1.126 0 0 0 0.218,0.037 0.934,0.934 0 0 0 0.3,-1.83 m -52.728,-3.716 a 8.042,8.042 0 1 1 -7.663,-8.734 c 0.118,0.006 0.243,0.012 0.361,0.026 a 8.034,8.034 0 0 1 7.3,8.709 m 29.164,2.558 a 8.038,8.038 0 0 1 -14.169,4.457 8.035,8.035 0 0 1 6.505,-13.191 c 0.118,0.006 0.237,0.012 0.361,0.026 a 7.947,7.947 0 0 1 6.5,4.463 c 0.006,0.006 0.006,0.013 0.013,0.019 a 7.988,7.988 0 0 1 0.791,4.226"
           fill="#6b6dd6"
           style="fill:#323c8f;fill-opacity:1" />
        <path
           id="Path_1374"
           data-name="Path 1374"
           d="m 514.37,277.351 c -2.7,0.523 -5.752,1.133 -9.1,1.805 -5.223,1.052 -11.118,2.235 -17.5,3.449 h -0.006 c -25.723,4.893 -59.339,10.5 -87.415,9.263 -0.093,-0.006 -0.181,-0.012 -0.268,-0.012 l 0.4,-1.855 c 25.542,1.108 55.785,-3.511 80.362,-8.006 h 0.006 c 8.908,-1.625 17.088,-3.268 24.054,-4.669 3.349,-0.672 6.406,-1.289 9.108,-1.812 a 0.93500281,0.93500281 0 0 1 0.355,1.836"
           fill="#ffffff" />
        <path
           id="Path_1375"
           data-name="Path 1375"
           d="m 514.151,277.361 a 0.934,0.934 0 0 1 -0.454,-1.725 c 15.511,-9.693 26.127,-29.248 25.243,-46.5 a 0.934,0.934 0 1 1 1.865,-0.1 c 0.933,18.172 -9.808,37.982 -26.119,48.176 a 0.93,0.93 0 0 1 -0.535,0.141"
           fill="#ffffff" />
        <path
           id="Path_1376"
           data-name="Path 1376"
           d="m 413.146,224.506 a 0.935,0.935 0 0 1 -0.893,-0.96 c 0.423,-14.667 4.154,-32.479 6.034,-37.914 a 0.934,0.934 0 0 1 1.765,0.611 c -1.508,4.356 -5.486,21.865 -5.932,37.358 a 0.934,0.934 0 0 1 -0.961,0.906 h -0.013"
           fill="#ffffff" />
        <path
           id="Path_1377"
           data-name="Path 1377"
           d="m 535.924,250.058 c -25.2,-8.678 -71.708,-12.578 -111.917,-10.347 -8.136,-21.095 -20.389,-26.35 -28.919,-32.275 a 1.665,1.665 0 0 0 -2.6,1.452 v 0.029 a 5.123,5.123 0 0 0 2.2,3.908 c 7.6,5.451 16.28,13.242 20.153,22.374 a 0.933,0.933 0 0 1 -0.495,1.224 0.923,0.923 0 0 1 -0.4,0.073 0.933,0.933 0 0 1 -0.819,-0.568 c -3.84,-9.053 -12.731,-16.814 -20.294,-22.135 -1.719,-1 -3.633,-1.959 -6.141,-3.238 a 1.673,1.673 0 0 0 -2.4,1.713 7.61,7.61 0 0 0 1.184,3.168 10.249,10.249 0 0 0 3.259,3.182 c 9.138,5.686 12.684,11.122 16.416,16.85 0.388,0.6 0.779,1.2 1.178,1.8 a 0.982,0.982 0 0 1 -0.166,1.31 0.934,0.934 0 0 1 -1.353,-0.22 c -0.415,-0.626 -0.82,-1.248 -1.224,-1.867 -3.679,-5.645 -7.168,-11 -16.333,-16.589 -1.676,-0.738 -3.384,-1.416 -5.146,-2.253 a 1.678,1.678 0 0 0 -2.351,1.663 8.584,8.584 0 0 0 2.944,5.667 18.2,18.2 0 0 0 4.17,2.923 c 5.063,2.692 7.637,6.551 11.537,12.432 a 0.987,0.987 0 0 1 -0.164,1.315 0.933,0.933 0 0 1 -1.352,-0.221 c -4.132,-6.233 -6.551,-9.869 -11.877,-12.363 -0.661,-0.3 -1.285,-0.55 -1.846,-0.747 a 1.7,1.7 0 0 0 -2.22,2.018 c 0.725,2.668 3.408,4.591 4.635,5.646 a 21.8,21.8 0 0 1 6.18,8.026 0.843,0.843 0 0 0 0.006,0.09 0.937,0.937 0 0 0 1.074,0.768 c 43.935,-7.3 110.512,-4.047 142.475,6.96 a 0.934,0.934 0 1 0 0.608,-1.765"
           fill="#ffffff" />
        <path
           id="Path_1378"
           data-name="Path 1378"
           d="m 545.273,315.3 -0.473,2.123 q -0.5,0.156 -1.022,0.291 c -0.335,0.1 -0.675,0.195 -1.022,0.279 -9.462,2.494 -22.235,3.181 -36.372,2.561 -6.027,-0.264 -12.3,-0.82 -18.663,-1.685 -29.98,-4.082 -55.311,-14.017 -69.5,-27.258 a 0.934,0.934 0 0 1 1.275,-1.365 c 13.905,12.979 38.863,22.742 68.472,26.771 21.252,2.889 42.029,2.572 55.257,-1.1 q 0.519,-0.136 1.022,-0.292 c 0.347,-0.1 0.688,-0.206 1.023,-0.322"
           fill="#ffffff" />
        <path
           id="Path_1379"
           data-name="Path 1379"
           d="m 214.389,372.016 a 0.925,0.925 0 0 1 -0.66,0.4 c -3.169,0.386 -9.35,1.544 -16.509,2.895 l -1.388,0.261 c -4.874,0.915 -10.116,1.892 -15.065,2.745 a 163.2,163.2 0 0 1 -17.026,2.278 c -0.76,0.037 -1.444,0.044 -2.036,0.025 a 0.935,0.935 0 0 1 -0.872,-0.7 L 113.484,193.799 a 0.931,0.931 0 0 1 0.423,-1.033 0.411,0.411 0 0 1 0.118,-0.056 l 0.037,-0.019 h 0.012 v -0.006 c 0.012,0 0.025,-0.006 0.037,-0.006 a 0.753,0.753 0 0 1 0.112,-0.031 0.667,0.667 0 0 1 0.156,-0.019 h 0.019 a 1.022,1.022 0 0 1 0.143,0.012 0.748,0.748 0 0 1 0.112,0.031 0.218,0.218 0 0 1 0.081,0.031 0.562,0.562 0 0 1 0.162,0.081 0.722,0.722 0 0 1 0.149,0.124 1.022,1.022 0 0 1 0.106,0.125 0.006,0.006 0 0 0 0.006,0.006 0.242,0.242 0 0 1 0.037,0.069 0.13,0.13 0 0 1 0.025,0.037 6.218,6.218 0 0 0 0.529,0.865 c 4.327,6.088 22.05,13.584 33.118,12.326 6.941,-0.8 9.282,-7.333 9.238,-11.847 0,-0.33 -0.019,-0.647 -0.044,-0.946 a 0.922,0.922 0 0 1 0.479,-0.9 0.155,0.155 0 0 1 0.044,-0.025 0.94,0.94 0 0 1 1.052,0.168 l 0.162,0.156 0.349,0.33 0.349,0.33 5.1,4.868 a 1.019,1.019 0 0 1 0.255,0.423 l 48.663,172.353 a 0.921,0.921 0 0 1 -0.125,0.772"
           fill="#b5ede4" />
        <path
           id="Path_1380"
           data-name="Path 1380"
           d="m 330.261,208.186 c -0.735,2.123 -1.619,5.634 -2.739,10.079 -3.281,13.017 -8.242,32.689 -17.157,50.045 -10.82,21.06 -24.54,32.5 -40.782,34 -8.329,0.784 -18.8,-2.8 -29.483,-10.041 a 88.9,88.9 0 0 1 -19.9,-18.526 c 4.849,13.428 15.576,37.943 26.837,63.666 6.767,15.47 13.764,31.463 19.871,45.918 a 0.93,0.93 0 0 1 -0.411,1.183 94.383,94.383 0 0 1 -41.331,11.527 119.539,119.539 0 0 1 -24.895,-1.563 0.95,0.95 0 0 1 -0.766,-0.741 l -40.39,-199.707 a 0.948,0.948 0 0 1 0.193,-0.778 0.924,0.924 0 0 1 0.722,-0.342 c 29.035,0.019 46.179,6.954 65.509,26.489 a 151.476,151.476 0 0 1 12.538,15.084 c 7.844,10.322 15.258,20.07 26.221,22.99 11.112,-0.909 20.973,-29.638 27.5,-48.682 2.428,-7.078 4.526,-13.191 6.144,-16.285 a 3.284,3.284 0 0 1 2.036,-1.637 c 0.012,-0.006 0.031,-0.006 0.044,-0.012 a 3.234,3.234 0 0 1 1.868,0.075 2.86,2.86 0 0 1 0.654,0.311 c 4.071,2.54 13.154,6.922 19.722,10.01 0.6,0.286 1.177,0.554 1.724,0.809 1.911,0.89 3.5,1.619 4.538,2.1 a 3.25,3.25 0 0 1 1.731,4.028"
           fill="#6b6dd6"
           style="fill:#323c8f;fill-opacity:1" />
        <path
           id="Path_1381"
           data-name="Path 1381"
           d="M 187.029,396.014 115.266,193.255 a 0.934,0.934 0 0 0 -1.358,-0.49 c -3.9,2.326 -8.93,5.043 -14.252,7.92 -10.461,5.653 -22.317,12.061 -27.789,16.8 a 0.935,0.935 0 0 0 -0.246,1.076 c 3.211,7.432 2.923,18.879 2.645,29.95 -0.2,8.118 -0.4,15.787 0.746,21.771 0.7,3.678 6.207,24.637 11.53,44.906 3.759,14.316 7.31,27.838 8.675,33.405 3.068,12.515 -10.457,44.259 -14.9,54.69 a 7.43,7.43 0 0 0 0.161,6.126 5.931,5.931 0 0 0 3.856,3.211 134.727,134.727 0 0 0 39.864,4.153 128.125,128.125 0 0 0 62.45,-19.658 0.933,0.933 0 0 0 0.383,-1.1"
           fill="#6b6dd6"
           style="fill:#323c8f;fill-opacity:1" />
        <path
           id="Path_1382"
           data-name="Path 1382"
           d="m 148.635,175.524 0.232,2.359 c -8.733,15.973 -27.375,8.816 -33.031,3.586 -0.138,-0.656 -1.828,-11.14 -1.828,-11.14 0,0 -2.542,-10.376 -3.947,-14.84 12.454,22.079 28.459,25.011 38.574,20.035"
           fill="#b5b6eb" />
        <path
           id="Path_1383"
           data-name="Path 1383"
           d="m 115.835,193.55 c -0.031,0.181 -0.05,0.311 -0.062,0.392 a 0.221,0.221 0 0 1 -0.019,0.068 0.8,0.8 0 0 1 -0.112,0.293 0.911,0.911 0 0 1 -0.747,0.442 0.879,0.879 0 0 1 -0.181,-0.006 0.931,0.931 0 0 1 -0.791,-1.058 c 0.012,-0.087 0.037,-0.237 0.068,-0.436 0.031,-0.181 0.062,-0.367 0.087,-0.554 v -0.006 a 65.686,65.686 0 0 0 -1.587,-28.12 55.352,55.352 0 0 0 -2.39,-6.636 c -0.168,-0.38 -0.336,-0.753 -0.51,-1.133 -0.037,-0.075 -0.068,-0.156 -0.1,-0.237 a 1.269,1.269 0 0 1 -0.031,-0.149 0.934,0.934 0 0 1 1.774,-0.51 l 0.019,0.037 c 0.187,0.4 0.367,0.8 0.542,1.208 0.068,0.168 0.143,0.336 0.212,0.5 0,0.019 0.012,0.031 0.019,0.05 0.542,1.27 1.021,2.534 1.45,3.8 0.4,1.17 0.759,2.334 1.071,3.492 a 67.945,67.945 0 0 1 1.289,28.562"
           fill="#6b6dd6"
           style="fill:#323c8f;fill-opacity:1" />
        <path
           id="Path_1384"
           data-name="Path 1384"
           d="m 160.597,194.359 a 0.938,0.938 0 0 1 -0.853,0.66 0.925,0.925 0 0 1 -0.317,-0.037 0.733,0.733 0 0 1 -0.125,-0.044 9.45,9.45 0 0 1 -1.2,-0.448 c -7.115,-3.094 -9.437,-12.395 -10.166,-17.02 -0.037,-0.224 -0.068,-0.442 -0.093,-0.641 a 0.925,0.925 0 0 1 0.8,-1.052 0.939,0.939 0 0 1 1.052,0.8 c 0.012,0.112 0.031,0.224 0.05,0.342 0.616,4.115 2.621,12.78 8.8,15.725 a 8.889,8.889 0 0 0 1,0.411 c 0.137,0.056 0.28,0.1 0.423,0.143 a 0.923,0.923 0 0 1 0.181,0.075 0.984,0.984 0 0 1 0.349,0.33 0.97,0.97 0 0 1 0.1,0.759"
           fill="#6b6dd6"
           style="fill:#323c8f;fill-opacity:1" />
        <path
           id="Path_1385"
           data-name="Path 1385"
           d="m 146.249,163.425 a 14.416,14.416 0 0 1 -10.177,-3.611 0.934,0.934 0 1 1 1.249,-1.389 12.3,12.3 0 0 0 18.092,-1.81 0.93421036,0.93421036 0 1 1 1.5,1.114 14.39,14.39 0 0 1 -9.96,5.644 c -0.233,0.024 -0.468,0.04 -0.7,0.052"
           fill="#6b6dd6"
           style="fill:#323c8f;fill-opacity:1" />
        <g
           id="Group_492"
           data-name="Group 492"
           transform="translate(157.413,137.682)"
           opacity="0.5">
          <g
             id="Group_491"
             data-name="Group 491">
            <g
               id="Group_490"
               data-name="Group 490"
               clip-path="url(#clip-path-5)">
              <path
                 id="Path_1386"
                 data-name="Path 1386"
                 d="m 252.873,225.889 c 0.249,1.928 4.169,3.012 8.756,2.42 4.587,-0.592 8.105,-2.635 7.856,-4.563 -0.249,-1.928 -4.169,-3.012 -8.756,-2.42 -4.587,0.592 -8.105,2.635 -7.856,4.562"
                 transform="translate(-252.861,-221.166)"
                 fill="#6b6dd6" />
            </g>
          </g>
        </g>
        <g
           id="Group_495"
           data-name="Group 495"
           transform="translate(122.784,142.148)"
           opacity="0.5">
          <g
             id="Group_494"
             data-name="Group 494">
            <g
               id="Group_493"
               data-name="Group 493"
               clip-path="url(#clip-path-6)">
              <path
                 id="Path_1387"
                 data-name="Path 1387"
                 d="m 197.247,233.064 c 0.249,1.928 4.169,3.012 8.756,2.42 4.587,-0.592 8.105,-2.635 7.856,-4.562 -0.249,-1.927 -4.169,-3.012 -8.756,-2.42 -4.587,0.592 -8.105,2.635 -7.856,4.562"
                 transform="translate(-197.235,-228.34)"
                 fill="#6b6dd6" />
            </g>
          </g>
        </g>
        <path
           id="Path_1388"
           data-name="Path 1388"
           d="m 133.376,133.126 c 0.24,1.862 1.515,3.232 2.847,3.06 1.332,-0.172 2.217,-1.82 1.977,-3.682 -0.24,-1.862 -1.515,-3.233 -2.846,-3.061 -1.331,0.172 -2.217,1.821 -1.977,3.683"
           fill="#6b6dd6"
           style="fill:#323c8f;fill-opacity:1" />
        <path
           id="Path_1389"
           data-name="Path 1389"
           d="m 156.884,130.094 c 0.24,1.862 1.515,3.232 2.847,3.06 1.332,-0.172 2.217,-1.82 1.976,-3.682 -0.241,-1.862 -1.515,-3.233 -2.846,-3.061 -1.331,0.172 -2.217,1.821 -1.977,3.683"
           fill="#6b6dd6"
           style="fill:#323c8f;fill-opacity:1" />
        <path
           id="Path_1390"
           data-name="Path 1390"
           d="m 157.789,172.583 a 28.621,28.621 0 0 1 -8.043,4.333 18.835,18.835 0 0 1 -1.805,0.554 27.305,27.305 0 0 1 -5.852,0.928 29.4,29.4 0 0 1 -9.325,-1.1 36.681,36.681 0 0 1 -18.221,-12.314 q -0.784,-0.962 -1.494,-1.98 a 34.892,34.892 0 0 1 -2.951,-5.08 c -0.168,-0.38 -0.336,-0.753 -0.51,-1.133 -0.037,-0.075 -0.068,-0.156 -0.1,-0.237 a 0.572,0.572 0 0 1 -0.056,-0.143 c -0.087,-0.193 -0.168,-0.392 -0.243,-0.591 a 0.93402797,0.93402797 0 0 1 1.743,-0.672 l 0.3,0.747 0.019,0.037 c 0.1,0.237 0.2,0.473 0.305,0.71 0.019,0.037 0.044,0.081 0.062,0.124 0.018,0.043 0.05,0.118 0.075,0.174 0.025,0.056 0.062,0.131 0.1,0.2 a 32.327,32.327 0 0 0 1.631,3.032 c 0.037,0.056 0.075,0.118 0.106,0.174 a 0.019,0.019 0 0 1 0.006,0.012 35.114,35.114 0 0 0 19.74,15.14 25.8,25.8 0 0 0 23.382,-4.408 c 11.311,-8.61 11.984,-25.654 10.552,-38.435 -0.181,-1.587 -0.448,-3.878 -0.741,-6.4 -0.573,-4.887 -1.251,-10.714 -1.569,-13.889 -0.081,-0.865 -0.137,-1.538 -0.156,-1.936 a 0.928,0.928 0 0 1 0.884,-0.977 h 0.044 a 0.931,0.931 0 0 1 0.934,0.884 c 0.056,1.121 0.43,4.5 0.872,8.392 0.274,2.384 0.573,4.962 0.847,7.315 0.293,2.521 0.567,4.812 0.741,6.406 1.482,13.26 0.728,30.983 -11.274,40.128"
           fill="#6b6dd6"
           style="fill:#323c8f;fill-opacity:1" />
        <path
           id="Path_1391"
           data-name="Path 1391"
           d="m 148.471,151.448 a 5.381,5.381 0 0 1 -3.85,-1.358 0.934,0.934 0 1 1 1.211,-1.421 c 2.7,2.3 5.935,-0.3 7.06,-1.366 -0.879,-2.212 -3.908,-10.238 -4.7,-17.657 -1.179,-11.005 4.283,-13.712 6.686,-14.365 a 6.492,6.492 0 0 1 6.8,2 0.934,0.934 0 0 1 -1.47,1.152 4.648,4.648 0 0 0 -4.837,-1.35 c -1.941,0.528 -6.344,2.788 -5.318,12.364 0.884,8.247 4.766,17.622 4.8,17.717 a 0.932,0.932 0 0 1 -0.169,0.986 9.851,9.851 0 0 1 -6.21,3.3"
           fill="#6b6dd6"
           style="fill:#323c8f;fill-opacity:1" />
        <path
           id="Path_1392"
           data-name="Path 1392"
           d="m 127.028,123.565 a 0.934,0.934 0 0 1 -0.924,-1.244 7.546,7.546 0 0 1 6.349,-5.1 7.258,7.258 0 0 1 7.15,2.989 0.934,0.934 0 1 1 -1.575,1 5.459,5.459 0 0 0 -5.337,-2.14 5.689,5.689 0 0 0 -4.827,3.875 0.935,0.935 0 0 1 -0.837,0.622"
           fill="#6b6dd6"
           style="fill:#323c8f;fill-opacity:1" />
        <path
           id="Path_1393"
           data-name="Path 1393"
           d="m 167.476,118.735 c -0.044,0.037 -0.087,0.081 -0.131,0.118 a 0.929,0.929 0 0 1 -1.544,-0.6 c -0.318,-3.019 -0.479,-4.507 -0.66,-5.914 l -0.243,0.037 c -2.646,0.386 -7.091,-0.43 -10.726,-2.515 -2.428,-1.394 -5.31,-3.822 -6.014,-7.682 a 10.072,10.072 0 0 1 -10.49,-2.042 7.116,7.116 0 0 1 -5.223,0.747 c 0.411,2.129 -0.342,4.6 -2.21,6.923 -2.839,3.53 -7.9,6.007 -12.637,4.588 a 8.232,8.232 0 0 1 -4.563,7.607 c -0.181,0.081 -0.361,0.162 -0.548,0.243 -0.735,0.317 -1.426,0.616 -1.594,1.108 a 2.668,2.668 0 0 0 0.3,1.575 c 0.087,0.224 0.168,0.448 0.237,0.666 a 6.249,6.249 0 0 1 -0.878,5.335 6.587,6.587 0 0 1 -3.007,2.5 9.255,9.255 0 0 1 1.612,5.7 7.294,7.294 0 0 1 -3.349,5.478 0.934,0.934 0 0 1 -1.276,-0.205 c -1.594,-2.1 -3.611,-2.783 -5.534,-1.849 a 6,6 0 0 0 -2.907,6.8 c 2.459,9.475 10.39,9.438 13.341,9.07 0.012,0 0.019,0 0.025,-0.006 a 9.233,9.233 0 0 0 1.083,-0.181 0.945,0.945 0 0 1 1.015,0.417 c 0.019,0.037 0.044,0.081 0.062,0.124 0.018,0.043 0.05,0.118 0.075,0.174 0.106,0.255 0.212,0.486 0.311,0.7 0,0.019 0.012,0.031 0.019,0.05 a 10.216,10.216 0 0 0 1.3,2.366 0.806,0.806 0 0 1 0.1,0.112 c 0.037,0.056 0.075,0.118 0.106,0.174 a 0.019,0.019 0 0 1 0.006,0.012 0.96,0.96 0 0 1 0.056,0.5 c -0.025,0.187 -0.068,0.4 -0.118,0.635 -0.1,0.43 -0.237,0.946 -0.423,1.513 -0.156,0.486 -0.342,1.008 -0.56,1.556 -1.357,3.38 -3.916,7.663 -7.732,9.052 a 7.729,7.729 0 0 1 -2.254,0.461 c -2.372,0.112 -4.843,-0.9 -7.389,-3.025 -5.323,3.15 -9.369,1.226 -11.417,-1.718 a 7.454,7.454 0 0 1 -1.264,-6.244 7.637,7.637 0 0 1 -4.93,-1.587 7.72,7.72 0 0 1 -2.851,-5.677 9.339,9.339 0 0 1 -8.2,-5.789 7.473,7.473 0 0 1 1.289,-8.105 c -6.474,-2.453 -8.155,-7.483 -7.5,-11.567 a 9.452,9.452 0 0 1 6.667,-7.906 8.6,8.6 0 0 1 3.941,-13.391 11.257,11.257 0 0 1 -0.853,-9.363 13.411,13.411 0 0 1 3.53,-5.036 12.655,12.655 0 0 1 2.945,-2.042 7.6,7.6 0 0 1 -1.544,-0.946 8.876,8.876 0 0 1 -2.882,-9.4 c -2.826,-1.812 -5.379,-3.753 -6.493,-6.767 a 7.137,7.137 0 0 1 0.89,-6.319 5.389,5.389 0 0 1 1.631,-1.525 11.873,11.873 0 0 1 0.934,-19.815 8.743,8.743 0 0 1 9.014,-12.245 7.454,7.454 0 0 1 13.272,-2.845 12.665,12.665 0 0 1 12.774,-2.459 7.773,7.773 0 0 1 5.59,8.51 10.588,10.588 0 0 1 13.882,8.578 9.488,9.488 0 0 1 2.166,13.907 11.615,11.615 0 0 1 5.1,6.026 c 0.031,0.081 0.056,0.156 0.081,0.237 a 16.91,16.91 0 0 1 2.658,-0.43 c 6.207,-0.5 12.345,2.148 15.476,6.611 a 13.822,13.822 0 0 1 14.243,14.461 c 4.053,0.4 8.666,4.183 10.371,11.249 a 19.574,19.574 0 0 1 -6.169,19.28"
           fill="#6b6dd6"
           style="fill:#323c8f;fill-opacity:1" />
        <path
           id="Path_1394"
           data-name="Path 1394"
           d="m 223.976,278.236 -1.382,-2.994 -1.667,-3.623 -12.274,-26.661 a 0.93603632,0.93603632 0 1 0 -1.7,0.784 l 9.857,21.415 0.7,1.519 4.195,9.106 0.007,0.025 z"
           fill="#ffffff" />
        <path
           id="Path_1395"
           data-name="Path 1395"
           d="m 104.445,359.18 c -0.952,-3.38 -5.08,-6.966 -9.431,-9.655 -0.579,-0.361 -1.158,-0.7 -1.737,-1.021 q -0.411,-0.233 -0.822,-0.448 a 36.981,36.981 0 0 0 -3.573,-1.693 c -3.181,-1.295 -5.572,-5.335 -7.184,-8.379 l -15.358,14.5 c 4.2,2.54 6.842,4.009 6.879,4.059 a 43.575,43.575 0 0 1 2.266,4.905 49.048,49.048 0 0 1 1.886,5.783 c 0.068,0.28 0.137,0.56 0.205,0.847 -0.075,-0.286 -0.156,-0.567 -0.224,-0.84 -0.741,-2.646 -1.419,-4.613 -2.378,-5.422 a 1.667,1.667 0 0 0 -0.809,-0.392 c -0.579,-0.1 -0.977,0.629 -1.233,1.861 a 32.687,32.687 0 0 0 -0.156,8.136 6.971,6.971 0 0 0 1.65,3.966 14.016,14.016 0 0 0 4.389,3.561 c 2.085,1.146 5,3.486 7.95,4.134 a 6.8,6.8 0 0 0 0.99,0.149 7.037,7.037 0 0 0 5.123,-2.179 c 8.3,-7.732 13.254,-15.85 11.567,-21.869 m -12.2,21.185 a 6.239,6.239 0 0 1 -4.4,1.936 6.344,6.344 0 0 1 -0.878,-0.131 19.155,19.155 0 0 1 -5.727,-2.839 c -0.7,-0.448 -1.363,-0.872 -1.949,-1.2 a 13.075,13.075 0 0 1 -4.158,-3.362 6.081,6.081 0 0 1 -1.419,-3.43 c -0.4,-4.868 -0.006,-8.18 0.473,-8.952 1.033,0.5 1.973,4 2.49,5.926 v 0.006 c 0,0.006 0.006,0.019 0.006,0.025 0.087,0.386 0.174,0.759 0.249,1.133 l -0.168,-0.149 a 0.933,0.933 0 0 0 -1.233,1.4 l 2.135,1.892 a 0.939,0.939 0 0 0 0.666,0.23 1,1 0 0 0 0.392,-0.106 0.935,0.935 0 0 0 0.486,-0.946 36.408,36.408 0 0 0 -0.7,-3.841 c 0,-0.013 -0.006,-0.025 -0.006,-0.037 a 0.265,0.265 0 0 0 -0.012,-0.069 49.5,49.5 0 0 0 -2.222,-6.972 l 16.267,-11.728 c 0.654,0.355 1.32,0.747 1.992,1.158 4.968,3.082 8.261,6.4 9.02,9.12 1.475,5.235 -2.646,12.861 -11.3,20.929"
           fill="#ffffff" />
        <path
           id="Path_1396"
           data-name="Path 1396"
           d="m 105.34,358.928 c -1.22,-4.333 -6.686,-8.248 -9.836,-10.2 -0.847,-0.523 -1.681,-1 -2.484,-1.425 a 1.2,1.2 0 0 0 -0.125,-0.068 38.622,38.622 0 0 0 -3.66,-1.737 c -2.82,-1.145 -5.074,-4.849 -6.717,-7.95 a 0.93,0.93 0 0 0 -1.463,-0.243 l -15.358,14.5 a 0.934,0.934 0 0 0 0.156,1.475 c 2.976,1.805 5.167,3.063 6.219,3.673 0.187,0.106 0.342,0.193 0.448,0.255 0.243,0.455 0.84,1.619 1.55,3.268 a 1.585,1.585 0 0 0 -1.065,0.43 5.576,5.576 0 0 0 -1.145,3.15 27.682,27.682 0 0 0 -0.187,3.405 c 0,1.681 0.106,3.231 0.174,4.04 a 7.939,7.939 0 0 0 1.868,4.488 14.865,14.865 0 0 0 4.65,3.773 c 0.554,0.305 1.189,0.71 1.861,1.139 a 20.714,20.714 0 0 0 6.337,3.094 9.748,9.748 0 0 0 1.114,0.168 6.34,6.34 0 0 0 0.691,0.012 8.4,8.4 0 0 0 5.148,-2.44 c 9.313,-8.691 13.515,-16.79 11.822,-22.8 m -17.5,23.37 a 6.335,6.335 0 0 1 -0.878,-0.131 19.155,19.155 0 0 1 -5.72,-2.846 c -0.7,-0.448 -1.363,-0.872 -1.949,-1.2 a 13.075,13.075 0 0 1 -4.158,-3.362 6.081,6.081 0 0 1 -1.419,-3.43 c -0.4,-4.868 -0.006,-8.18 0.473,-8.952 1.033,0.5 1.973,4 2.49,5.926 v 0.006 a 0.936,0.936 0 0 0 1.83,-0.361 c 0,-0.013 -0.006,-0.025 -0.006,-0.037 a 0.265,0.265 0 0 0 -0.012,-0.068 49.494,49.494 0 0 0 -2.222,-6.972 43.474,43.474 0 0 0 -2.229,-4.806 1.116,1.116 0 0 0 -0.124,-0.174 c -0.112,-0.118 -0.112,-0.118 -0.9,-0.573 -0.921,-0.529 -2.708,-1.562 -5.13,-3.013 l 13.577,-12.824 c 1.737,3.119 4.053,6.5 7.078,7.732 a 36.425,36.425 0 0 1 3.486,1.656 c 0.168,0.087 0.342,0.181 0.51,0.274 0.654,0.355 1.32,0.747 1.992,1.158 4.968,3.082 8.261,6.4 9.02,9.12 1.475,5.235 -2.646,12.861 -11.3,20.929 a 6.239,6.239 0 0 1 -4.4,1.936"
           fill="#6b6dd6"
           style="fill:#323c8f;fill-opacity:1" />
        <path
           id="Path_1397"
           data-name="Path 1397"
           d="m 92.243,380.364 a 6.239,6.239 0 0 1 -4.4,1.936 6.326,6.326 0 0 1 -0.878,-0.131 19.152,19.152 0 0 1 -5.727,-2.839 c -0.7,-0.448 -1.363,-0.872 -1.949,-1.2 a 13.076,13.076 0 0 1 -4.158,-3.362 6.081,6.081 0 0 1 -1.419,-3.43 c -0.4,-4.868 -0.006,-8.18 0.473,-8.952 1.033,0.5 1.973,4 2.49,5.927 v 0.006 c 0,0.006 0.006,0.019 0.006,0.025 0.087,0.386 0.174,0.759 0.249,1.133 l -0.168,-0.149 a 0.933,0.933 0 0 0 -1.233,1.4 l 2.135,1.893 a 0.939,0.939 0 0 0 0.666,0.23 1,1 0 0 0 0.392,-0.106 0.935,0.935 0 0 0 0.486,-0.946 36.414,36.414 0 0 0 -0.7,-3.841 c 0,-0.012 -0.006,-0.025 -0.006,-0.037 a 0.265,0.265 0 0 0 -0.012,-0.069 49.49,49.49 0 0 0 -2.222,-6.972 l 16.267,-11.728 c 0.654,0.355 1.32,0.747 1.992,1.158 4.968,3.081 8.261,6.4 9.02,9.12 1.475,5.235 -2.646,12.861 -11.3,20.929"
           fill="#ffffff" />
        <path
           id="Path_1398"
           data-name="Path 1398"
           d="m 79.208,371.804 a 0.935,0.935 0 0 1 -0.486,0.946 1,1 0 0 1 -0.392,0.106 0.939,0.939 0 0 1 -0.666,-0.23 l -2.135,-1.892 a 0.933,0.933 0 0 1 1.233,-1.4 l 0.168,0.149 c -0.075,-0.374 -0.162,-0.747 -0.249,-1.133 0,-0.006 -0.006,-0.019 -0.006,-0.025 v -0.006 a 0.931,0.931 0 0 1 0.679,-1.083 c 0.006,0 0.012,-0.006 0.019,-0.006 h 0.006 a 0.93,0.93 0 0 1 1.121,0.7 c 0,0.012 0.006,0.025 0.006,0.037 a 36.411,36.411 0 0 1 0.7,3.841"
           fill="#6b6dd6"
           style="fill:#323c8f;fill-opacity:1" />
        <path
           id="Path_1399"
           data-name="Path 1399"
           d="m 93.389,348.135 a 0.946,0.946 0 0 1 -0.386,0.679 l -0.473,0.342 -16.267,11.729 -0.778,0.56 -0.51,0.367 -2.042,1.469 -1.071,0.772 -1.351,0.977 a 0.983,0.983 0 0 1 -0.5,0.174 0.919,0.919 0 0 1 -0.423,-0.081 C 52.769,357.641 7.63,332.703 0.788,307.466 -4.043,289.624 14.148,269.299 33.2,250.007 43.783,239.275 57.261,228.517 74.237,215.662 a 0.934,0.934 0 0 1 1.257,1.37 c -0.7,2.054 3.3,17.624 6.225,29.01 2.216,8.622 4.308,16.771 5.316,22.062 a 0.937,0.937 0 0 1 -0.23,0.809 C 74.3,282.341 62.487,290.62 44.091,301.695 c 11.616,6.96 28.568,24.54 41.081,37.52 2.851,2.957 5.553,5.758 7.85,8.087 l 0.1,0.1 a 0.942,0.942 0 0 1 0.268,0.735"
           fill="#6b6dd6"
           style="fill:#323c8f;fill-opacity:1" />
        <path
           id="Path_1400"
           data-name="Path 1400"
           d="m 76.957,278.366 12.339,-10.549 a 0.934,0.934 0 1 1 1.214,1.419 L 77.47,280.38 Z"
           fill="#ffffff" />
        <path
           id="Path_1401"
           data-name="Path 1401"
           d="m 352.528,143.76 a 2.127,2.127 0 0 0 -1.538,-1.32 c -2.422,-0.523 -7.091,-0.324 -11.635,6.611 a 1.877,1.877 0 0 0 -0.324,-0.2 1.952,1.952 0 0 0 -1.724,0.025 5.575,5.575 0 0 0 -3.081,5.005 1.82,1.82 0 0 0 -0.486,-0.1 1.875,1.875 0 0 0 -1.394,0.535 5,5 0 0 0 -1.357,3.237 c -3.318,2.459 -12.644,9.823 -15.613,12.17 -0.286,-1.239 0.081,-3.125 0.473,-5.117 0.579,-2.92 1.233,-6.232 0.081,-8.908 a 11.542,11.542 0 0 0 -3.312,-4.4 2.415,2.415 0 0 0 -3.959,1.861 38.178,38.178 0 0 1 -6.418,21.863 l -0.131,0.212 c -2.428,3.99 -2.222,12.805 -2.085,15.619 0.012,0.324 0.025,0.573 0.037,0.722 l -7.645,32.564 a 0.93,0.93 0 0 0 0.7,1.121 0.726,0.726 0 0 0 0.255,0.025 0.934,0.934 0 0 0 0.865,-0.716 l 7.676,-32.7 a 1.063,1.063 0 0 0 0.019,-0.28 c 0,-0.019 -0.019,-0.255 -0.037,-0.66 -0.118,-2.453 -0.367,-11.137 1.812,-14.723 l 0.131,-0.212 a 40.331,40.331 0 0 0 6.692,-22.834 0.531,0.531 0 0 1 0.311,-0.5 0.554,0.554 0 0 1 0.6,0.081 9.618,9.618 0 0 1 2.776,3.7 c 0.928,2.141 0.361,5.024 -0.193,7.806 -0.585,2.963 -1.139,5.758 0.28,7.508 a 0.006,0.006 0 0 1 0.006,0.006 0.006,0.006 0 0 0 0.006,0.006 c 0,0.006 0.006,0.006 0.006,0.012 a 0.785,0.785 0 0 0 0.149,0.137 c 0.006,0.012 0.025,0.019 0.031,0.025 0.05,0.031 0.093,0.062 0.143,0.087 l 0.056,0.019 c 0.05,0.019 0.093,0.031 0.137,0.044 a 0.22,0.22 0 0 0 0.062,0.012 1.213,1.213 0 0 0 0.149,0.012 h 0.05 a 1.1,1.1 0 0 0 0.249,-0.05 l 0.044,-0.019 a 1.019,1.019 0 0 0 0.212,-0.118 c 0.006,-0.006 0.012,-0.006 0.019,-0.012 0.118,-0.093 10.876,-8.622 15.538,-12.152 a 12.087,12.087 0 0 0 0.735,2.316 l -6.642,7.147 a 0.93405032,0.93405032 0 1 0 1.37,1.27 l 6.132,-6.6 c 0.486,0.984 0.909,1.836 1.282,2.559 l -0.056,0.056 -3.729,4.849 a 0.94,0.94 0 0 0 0.174,1.314 0.963,0.963 0 0 0 0.61,0.193 0.92,0.92 0 0 0 0.7,-0.367 l 3.243,-4.221 c 0.386,0.735 0.66,1.233 0.828,1.531 l -2.26,7.433 a 0.93369334,0.93369334 0 0 0 1.787,0.542 l 2.371,-7.817 a 0.926,0.926 0 0 0 -0.093,-0.747 c -0.006,-0.019 -1.133,-1.93 -3.654,-7.1 -2.129,-4.358 -0.629,-6.157 -0.3,-6.474 1.681,1.986 6.6,8.174 8.641,10.739 a 2.769,2.769 0 0 1 0.6,1.855 c -0.305,6.972 -1.027,12.152 -1.868,13.527 -0.841,1.375 -6.81,7.477 -16.379,16.752 a 21.511,21.511 0 0 0 -2.378,2.727 21.774,21.774 0 0 0 -3.349,6.742 c -1.214,4.121 -4.053,13.739 -4.134,14.069 a 0.927,0.927 0 0 0 0.666,1.133 0.86,0.86 0 0 0 0.28,0.031 0.941,0.941 0 0 0 0.859,-0.691 c 0.087,-0.324 2.272,-7.75 4.121,-14.013 a 19.879,19.879 0 0 1 3.281,-6.462 20.393,20.393 0 0 1 1.948,-2.2 c 6.947,-6.73 15.482,-15.165 16.671,-17.113 1.413,-2.3 1.955,-10.023 2.148,-14.424 a 4.727,4.727 0 0 0 -0.069,-0.984 0.863,0.863 0 0 0 0.112,-0.33 l 1.762,-13.2 c 1.382,-1.98 4.146,-5.833 5.7,-8 a 2.154,2.154 0 0 0 0.261,-2.048 m -16.26,12.127 c -0.66,-3.268 0.654,-4.713 1.892,-5.348 0.013,-0.006 0.031,-0.019 0.075,0.006 a 0.121,0.121 0 0 1 0.075,0.093 l 2.372,10.726 c -1.525,-1.911 -3.187,-3.984 -4.414,-5.478 m 7,8.522 L 341,154.153 c 0.548,-3.735 2.484,-4.75 4.028,-4.93 a 0.2,0.2 0 0 1 0.18,0.062 0.2,0.2 0 0 1 0.056,0.174 z m 7.483,-19.691 c -0.965,1.332 -2.384,3.312 -3.654,5.1 l 0.013,-0.112 a 2.076,2.076 0 0 0 -2.31,-2.334 6.024,6.024 0 0 0 -2.6,0.934 c 3.455,-4.271 6.655,-4.414 8.385,-4.04 a 0.257,0.257 0 0 1 0.193,0.168 0.308,0.308 0 0 1 -0.031,0.286"
           fill="#6b6dd6"
           style="fill:#323c8f;fill-opacity:1" />
        <path
           id="Path_1402"
           data-name="Path 1402"
           d="m 322.89,178.621 c -5.08,1.338 -10.7,10.365 -10.757,10.458 a 0.926,0.926 0 0 1 -0.753,0.442 0.949,0.949 0 0 1 -0.529,-0.137 0.933,0.933 0 0 1 -0.305,-1.289 c 0.243,-0.392 6.063,-9.749 11.872,-11.28 a 0.933,0.933 0 1 1 0.473,1.805"
           fill="#6b6dd6"
           style="fill:#323c8f;fill-opacity:1" />
        <path
           id="Path_1403"
           data-name="Path 1403"
           d="m 326.309,43.364 -6.162,6.8 -6.8,-6.162 A 19.928,19.928 0 0 1 311.966,15.85 l 6.162,-6.8 6.8,6.162 a 19.928,19.928 0 0 1 1.379,28.148"
           fill="#7deace" />
        <path
           id="Path_1404"
           data-name="Path 1404"
           d="m 320.147,51.181 a 1.019,1.019 0 0 1 -0.685,-0.264 l -6.8,-6.162 a 20.946,20.946 0 0 1 -1.449,-29.589 l 6.162,-6.8 a 1.021,1.021 0 0 1 1.441,-0.071 l 6.8,6.162 a 20.972,20.972 0 0 1 1.449,29.59 l -6.162,6.8 a 1.018,1.018 0 0 1 -0.705,0.334 h -0.05 m -1.944,-40.687 -5.476,6.041 a 18.908,18.908 0 0 0 1.308,26.707 l 6.042,5.478 5.477,-6.042 a 18.929,18.929 0 0 0 -1.308,-26.707 z m 8.106,32.869 z"
           fill="#7deace" />
        <path
           id="Path_1405"
           data-name="Path 1405"
           d="m 324.468,139.149 a 1.02,1.02 0 0 1 -1.018,-0.971 L 318.326,33.585 a 1.02,1.02 0 1 1 2.037,-0.1 l 5.124,104.6 a 1.02,1.02 0 0 1 -0.969,1.069 h -0.05"
           fill="#6b6dd6" />
        <path
           id="Path_1406"
           data-name="Path 1406"
           d="m 306.147,110.313 9.164,-0.449 -0.449,-9.164 A 19.928,19.928 0 0 0 293.983,81.771 l -9.164,0.449 0.449,9.164 a 19.928,19.928 0 0 0 20.879,18.929"
           fill="#7deace" />
        <path
           id="Path_1407"
           data-name="Path 1407"
           d="m 305.146,111.357 a 20.949,20.949 0 0 1 -20.9,-19.923 l -0.449,-9.164 a 1.02,1.02 0 0 1 0.969,-1.068 l 9.164,-0.449 a 20.977,20.977 0 0 1 21.948,19.9 l 0.449,9.164 a 1.019,1.019 0 0 1 -0.969,1.069 l -9.164,0.449 q -0.526,0.025 -1.05,0.026 m -19.257,-28.172 0.4,8.145 a 18.907,18.907 0 0 0 19.81,17.96 l 8.145,-0.4 -0.4,-8.145 a 18.916,18.916 0 0 0 -19.81,-17.96 z"
           fill="#7deace" />
        <path
           id="Path_1408"
           data-name="Path 1408"
           d="m 323.392,118.21 a 1.017,1.017 0 0 1 -0.685,-0.264 l -23.626,-21.42 a 1.02,1.02 0 0 1 1.37,-1.511 l 23.627,21.419 a 1.02,1.02 0 0 1 -0.686,1.776"
           fill="#6b6dd6" />
        <path
           id="Path_1409"
           data-name="Path 1409"
           d="m 338.746,78.092 -9.164,0.449 -0.449,-9.164 a 19.927,19.927 0 0 1 18.928,-20.879 l 9.164,-0.449 0.45,9.164 a 19.928,19.928 0 0 1 -18.929,20.879"
           fill="#7deace" />
        <path
           id="Path_1410"
           data-name="Path 1410"
           d="m 329.577,79.56 a 1.02,1.02 0 0 1 -1.018,-0.971 l -0.45,-9.164 a 20.948,20.948 0 0 1 19.9,-21.948 l 9.164,-0.449 a 1.019,1.019 0 0 1 1.068,0.969 l 0.449,9.164 a 20.948,20.948 0 0 1 -19.9,21.948 l -9.164,0.449 h -0.05 m 26.675,-30.443 -8.145,0.4 a 18.908,18.908 0 0 0 -17.961,19.81 l 0.4,8.145 8.144,-0.4 a 18.907,18.907 0 0 0 17.96,-19.81 z"
           fill="#7deace" />
        <path
           id="Path_1411"
           data-name="Path 1411"
           d="m 322.25,87.642 a 1.02,1.02 0 0 1 -0.755,-1.705 l 21.419,-23.626 a 1.02,1.02 0 1 1 1.511,1.37 l -21.419,23.626 a 1.017,1.017 0 0 1 -0.756,0.335"
           fill="#6b6dd6" />
      </g>
    </g>
    <g
       id="Group_383"
       data-name="Group 383"
       transform="translate(818.463 182.788)">
      <g
         id="Group_382"
         data-name="Group 382"
         clip-path="url(#clip-path-7)">
        <path
           id="Path_1013"
           data-name="Path 1013"
           d="M44.254,58.424H14.169A14.169,14.169,0,0,1,0,44.254V14.169A14.169,14.169,0,0,1,14.169,0H44.254A14.169,14.169,0,0,1,58.424,14.169V44.254A14.169,14.169,0,0,1,44.254,58.424"
           fill="#ddfca2" />
        <path
           id="Path_1014"
           data-name="Path 1014"
           d="M50.366,54.449a1.7,1.7,0,0,1-1.7-1.7V32.111a1.7,1.7,0,0,1,3.392,0V52.753a1.7,1.7,0,0,1-1.7,1.7"
           transform="translate(-21.154 -13.22)"
           fill="#6b6dd6" />
        <path
           id="Path_1015"
           data-name="Path 1015"
           d="M52.752,52.063H32.11a1.7,1.7,0,0,1,0-3.392H52.752a1.7,1.7,0,0,1,0,3.392"
           transform="translate(-13.219 -21.155)"
           fill="#6b6dd6" />
      </g>
    </g>
    <g
       id="Group_385"
       data-name="Group 385"
       transform="translate(911.44 604.801)">
      <g
         id="Group_384"
         data-name="Group 384"
         transform="translate(0)"
         clip-path="url(#clip-path-8)">
        <path
           id="Path_1016"
           data-name="Path 1016"
           d="M131.429,72.459H24.818A24.818,24.818,0,0,1,0,47.642V24.818A24.818,24.818,0,0,1,24.818,0H131.429a24.817,24.817,0,0,1,24.818,24.818V47.642a24.818,24.818,0,0,1-24.818,24.818"
           fill="#eaeaf9" />
        <path
           id="Path_1017"
           data-name="Path 1017"
           d="M80.415,74.551a1.533,1.533,0,0,1-1.084-2.617L92.315,58.949a1.578,1.578,0,0,1,2.168,0l4.976,4.975L115.11,48.273a1.533,1.533,0,0,1,2.168,0l6.418,6.418,24.6-24.6a1.533,1.533,0,1,1,2.168,2.168l-25.68,25.68a1.533,1.533,0,0,1-2.168,0l-6.418-6.418L100.543,67.176a1.533,1.533,0,0,1-2.168,0L93.4,62.2,81.5,74.1a1.529,1.529,0,0,1-1.084.449"
           transform="translate(-38.576 -14.498)"
           fill="#6b6dd6" />
        <path
           id="Path_1018"
           data-name="Path 1018"
           d="M202.425,45.734a1.533,1.533,0,0,1-1.533-1.533V31.018H187.709a1.533,1.533,0,1,1,0-3.066h14.716a1.533,1.533,0,0,1,1.533,1.533V44.2a1.533,1.533,0,0,1-1.533,1.533"
           transform="translate(-91.047 -13.67)"
           fill="#6b6dd6" />
      </g>
    </g>
    <g
       id="Group_381"
       data-name="Group 381"
       transform="translate(1192.057 306.111)">
      <g
         id="Group_380"
         data-name="Group 380"
         transform="translate(0)"
         clip-path="url(#clip-path-9)">
        <path
           id="Path_1010"
           data-name="Path 1010"
           d="M5.819,78.889h0a31.56,31.56,0,0,1-2.5-32.348l6-12.029A31.559,31.559,0,0,0,8.632,5.039L5.819,0H50.546l2.813,5.039a31.559,31.559,0,0,1,.687,29.474l-6,12.029a31.56,31.56,0,0,0,2.5,32.348Z"
           transform="translate(0)"
           fill="#b5ede4" />
        <path
           id="Path_1011"
           data-name="Path 1011"
           d="M49.6,77.729h-11.9a1.533,1.533,0,1,1,0-3.066H49.6a3.9,3.9,0,1,0,0-7.8H43.14a6.966,6.966,0,1,1,0-13.932h11.9a1.533,1.533,0,1,1,0,3.066H43.14a3.9,3.9,0,1,0,0,7.8H49.6a6.966,6.966,0,1,1,0,13.933"
           transform="translate(-17.69 -25.884)"
           fill="#6bdbc8" />
        <path
           id="Path_1012"
           data-name="Path 1012"
           d="M54.666,77.934A1.533,1.533,0,0,1,53.133,76.4V45.124a1.533,1.533,0,1,1,3.066,0V76.4a1.532,1.532,0,0,1-1.533,1.533"
           transform="translate(-25.984 -21.318)"
           fill="#6bdbc8" />
      </g>
    </g>
  </g>
</svg>
